:SAMPLES-PER-SECOND 30
:FRAME-RANGE 1-564
:FULLY-SPECIFIED
:DEGREES
547
root  43.4869 38.3412 -140.286 -10.2806 -75.864 1.12997
RightUpLeg  17.2415 -2.87414 -2.42804
RightLeg  -7.64733 -12.2341 -1.44851
RightFoot  -1.73202 -0.804022 9.40424
RightToes  -1.74624e-010 0 -3.6325e-017
Spine  5.26454 3.43293 5.23251
Spine1  2.51942 4.98216 -6.54855
HEad  -6.7438 8.21681 -8.49124
LeftShoulder1  3.13843 -4.07003 -35.3969
LeftArm  5.25883 7.99139 -30.6481
LeftForeArm  1.14055 -3.23435 -17.2523
LeftHand  -0.65092 -1.41789 11.2584
RightShoulder  6.32302 4.31484 68.6033
RightArm  15.3803 4.48856 -3.26869
RightForeArm  18.3422 2.14672 15.2522
RightHand  0.126709 17.5405 0.156065
LeftUpLeg  17.5405 6.57887 2.95697
LeftLeg  -4.45857 9.73876 0.502571
LeftFoot  -5.75098 -0.107518 2.89863
LeftToes  -6.43926e-010 8.38805e-011 -3.16407e-011
548
root  43.5545 38.3559 -140.28 -10.0674 -75.7904 0.994476
RightUpLeg  17.1074 -2.85183 -2.31611
RightLeg  -7.77775 -12.3495 -1.52366
RightFoot  -1.51384 -0.765582 8.76788
RightToes  -1.74624e-010 0 -3.6325e-017
Spine  5.41327 3.40327 5.47841
Spine1  2.49052 5.03448 -6.80524
HEad  -7.10264 8.33878 -8.5035
LeftShoulder1  3.14115 -4.12115 -35.1601
LeftArm  4.97293 8.13879 -30.7142
LeftForeArm  1.55698 -3.03826 -17.2719
LeftHand  -0.663568 -1.5944 11.1966
RightShoulder  6.34478 4.32238 68.7422
RightArm  16.8071 4.29637 -3.22901
RightForeArm  14.7148 2.83734 15.4171
RightHand  0.0233372 15.9585 -0.343744
LeftUpLeg  17.3812 6.57832 2.95926
LeftLeg  -4.54875 9.69241 0.433504
LeftFoot  -5.6054 -0.119457 3.08944
LeftToes  -6.43926e-010 8.38805e-011 -3.16407e-011
549
root  43.627 38.3408 -140.283 -9.94424 -75.709 1.00368
RightUpLeg  16.7884 -2.63045 -2.16077
RightLeg  -7.63741 -12.6777 -1.78449
RightFoot  -1.49736 -0.833411 9.53757
RightToes  -1.74624e-010 0 -3.6325e-017
Spine  5.50847 3.44168 5.45063
Spine1  2.51223 5.0726 -6.78161
HEad  -7.3679 8.40373 -8.57257
LeftShoulder1  3.14659 -4.13564 -35.1535
LeftArm  4.88729 7.94496 -30.6369
LeftForeArm  3.41722 -2.61854 -17.3083
LeftHand  -0.850717 -2.86821 12.17
RightShoulder  6.32684 4.29477 68.782
RightArm  16.697 4.27887 -3.3064
RightForeArm  14.6078 2.60086 15.4884
RightHand  0.036209 15.7031 -0.2699
LeftUpLeg  17.0584 6.71978 3.05965
LeftLeg  -4.45353 9.5008 0.239514
LeftFoot  -5.69138 -0.140193 3.41865
LeftToes  -6.43926e-010 8.38805e-011 -3.16407e-011
550
root  43.7059 38.3501 -140.273 -10.2289 -75.6419 1.42094
RightUpLeg  16.5524 -2.64892 -2.34417
RightLeg  -7.64257 -12.7396 -1.74735
RightFoot  -1.39985 -0.864826 9.81044
RightToes  -1.74624e-010 0 -3.6325e-017
Spine  5.38189 3.42818 5.5028
Spine1  3.07622 5.11779 -7.01832
HEad  -8.00226 8.53319 -8.63033
LeftShoulder1  3.09698 -4.05751 -34.9265
LeftArm  5.20485 7.52129 -30.8823
LeftForeArm  0.658962 -2.32543 -17.561
LeftHand  -0.633263 -1.12255 11.4316
RightShoulder  6.39936 4.39518 68.7027
RightArm  16.3627 4.44279 -3.22067
RightForeArm  14.6654 2.30117 15.5432
RightHand  0.0381484 15.627 -0.257955
LeftUpLeg  16.6101 6.76335 2.93341
LeftLeg  -4.00439 9.3542 0.197077
LeftFoot  -5.68779 -0.141957 3.45432
LeftToes  -6.43926e-010 8.38805e-011 -3.16407e-011
551
root  43.7859 38.3674 -140.256 -9.95041 -75.4549 1.28139
RightUpLeg  16.3071 -2.66787 -2.31549
RightLeg  -7.66776 -13.0243 -1.69294
RightFoot  -1.28854 -0.81025 9.0936
RightToes  -1.74624e-010 0 -3.6325e-017
Spine  5.73629 3.42898 5.43153
Spine1  2.55838 5.0643 -6.80021
HEad  -7.7626 8.37496 -8.75988
LeftShoulder1  3.13764 -4.10833 -35.1829
LeftArm  5.38728 7.57971 -30.6268
LeftForeArm  2.44758 -2.103 -17.5644
LeftHand  -0.819046 -2.42547 12.3606
RightShoulder  6.30615 4.28542 68.6653
RightArm  16.3663 4.31636 -3.3622
RightForeArm  14.9683 2.07812 15.6046
RightHand  0.0187567 15.7817 -0.366317
LeftUpLeg  16.3688 6.81499 2.9588
LeftLeg  -4.11152 9.15335 0.0453785
LeftFoot  -5.58182 -0.15186 3.6189
LeftToes  -6.43926e-010 8.38805e-011 -3.16407e-011
552
root  43.8586 38.3731 -140.232 -9.84154 -75.3001 1.30998
RightUpLeg  16.1075 -2.76431 -2.46257
RightLeg  -7.7515 -12.9468 -1.56987
RightFoot  -1.09431 -0.808762 8.91918
RightToes  -1.74624e-010 0 -3.6325e-017
Spine  5.35343 3.36203 5.68238
Spine1  3.47462 5.11967 -7.15142
HEad  -8.35521 8.70144 -8.64445
LeftShoulder1  3.08769 -4.10176 -34.5723
LeftArm  4.64667 7.59765 -31.2955
LeftForeArm  1.45212 -2.10023 -17.5307
LeftHand  -0.665655 -1.49719 11.3823
RightShoulder  6.34934 4.36886 68.4493
RightArm  16.126 4.50029 -3.02598
RightForeArm  15.3981 1.95767 15.5841
RightHand  0.0683369 16.1344 -0.104968
LeftUpLeg  16.1398 6.83903 2.89881
LeftLeg  -4.18853 9.03742 -0.0522496
LeftFoot  -5.47967 -0.166221 3.85549
LeftToes  -6.43926e-010 8.38805e-011 -3.16407e-011
553
root  43.9353 38.3755 -140.2 -9.79715 -74.9914 1.47093
RightUpLeg  15.8464 -2.79567 -2.60864
RightLeg  -7.79122 -13.2106 -1.49065
RightFoot  -1.00412 -0.829176 9.07244
RightToes  -1.74624e-010 0 -3.6325e-017
Spine  5.5195 3.36763 5.40287
Spine1  3.26613 5.02475 -6.82115
HEad  -8.28344 8.55166 -8.84186
LeftShoulder1  3.11238 -4.1082 -34.8577
LeftArm  4.91036 7.59899 -31.1914
LeftForeArm  2.93455 -2.09855 -17.4896
LeftHand  -0.832817 -2.57226 12.3423
RightShoulder  6.24282 4.25615 68.3098
RightArm  16.5119 4.36634 -3.19439
RightForeArm  15.0799 2.21895 15.5708
RightHand  0.0828076 16.1579 -0.0281022
LeftUpLeg  15.7509 6.69711 2.65427
LeftLeg  -4.12394 8.89122 0.0229114
LeftFoot  -5.47888 -0.167167 3.88607
LeftToes  -6.43926e-010 8.38805e-011 -3.16407e-011
554
root  44.0033 38.3753 -140.15 -9.78918 -74.6801 1.5303
RightUpLeg  15.7414 -2.72702 -2.66638
RightLeg  -7.80357 -13.6642 -1.52357
RightFoot  -0.947855 -0.856964 9.33121
RightToes  -1.74624e-010 0 -3.6325e-017
Spine  5.64751 3.24435 5.5968
Spine1  3.29439 4.97191 -7.13896
HEad  -8.10079 8.38641 -8.82777
LeftShoulder1  3.09832 -4.10636 -34.6857
LeftArm  4.8518 7.74134 -31.3524
LeftForeArm  2.78882 -2.17157 -17.4647
LeftHand  -0.8053 -2.4706 12.0912
RightShoulder  6.23821 4.25213 68.2975
RightArm  16.4923 4.34579 -3.20459
RightForeArm  14.5693 2.21655 15.5951
RightHand  0.063348 15.6932 -0.121249
LeftUpLeg  15.5087 6.60958 2.46725
LeftLeg  -4.04958 8.76353 0.068813
LeftFoot  -5.43823 -0.173826 4.00898
LeftToes  -6.43926e-010 8.38805e-011 -3.16407e-011
555
root  44.0697 38.3807 -140.084 -9.85158 -74.2928 1.67018
RightUpLeg  15.7238 -2.86576 -2.91062
RightLeg  -7.97885 -13.7393 -1.41341
RightFoot  -0.712338 -0.867697 9.25601
RightToes  -1.74624e-010 0 -3.6325e-017
Spine  6.1147 3.05391 5.83294
Spine1  2.54581 4.84467 -7.55235
HEad  -7.92674 8.83271 -8.57528
LeftShoulder1  3.12431 -4.13826 -34.8533
LeftArm  5.69098 8.27435 -31.0365
LeftForeArm  -1.49024 -2.75414 -17.5754
LeftHand  -0.460373 -0.206286 9.63655
RightShoulder  6.28441 4.26948 68.5864
RightArm  16.3428 4.06732 -3.52293
RightForeArm  14.7999 2.14963 15.5847
RightHand  0.0673976 15.6756 -0.0986464
LeftUpLeg  15.33 6.49534 2.25857
LeftLeg  -4.08436 8.38418 0.0708974
LeftFoot  -5.37182 -0.177929 4.09578
LeftToes  -6.43926e-010 8.38805e-011 -3.16407e-011
556
root  44.1365 38.3764 -140.008 -9.93027 -73.9116 1.80284
RightUpLeg  15.6272 -2.8399 -3.05274
RightLeg  -7.90732 -14.2595 -1.45709
RightFoot  -0.734196 -0.907075 9.69509
RightToes  -1.74624e-010 0 -3.6325e-017
Spine  6.34564 2.92558 6.2615
Spine1  2.47813 4.89095 -8.30862
HEad  -7.78146 8.8455 -8.22442
LeftShoulder1  3.11294 -4.21203 -34.3239
LeftArm  4.74727 8.53003 -31.5439
LeftForeArm  0.910622 -2.71978 -17.3761
LeftHand  -0.609782 -1.17392 10.932
RightShoulder  6.26398 4.22098 68.7558
RightArm  16.4489 4.03934 -3.54321
RightForeArm  14.7842 2.34061 15.5364
RightHand  0.0973588 15.8229 0.0605676
LeftUpLeg  15.076 6.36197 1.96091
LeftLeg  -3.93152 8.37653 0.15904
LeftFoot  -5.41421 -0.193224 4.36111
LeftToes  -6.43926e-010 8.38805e-011 -3.16407e-011
557
root  44.199 38.3769 -139.921 -9.93047 -73.4498 1.87012
RightUpLeg  15.5894 -2.91762 -3.25411
RightLeg  -7.97508 -14.4279 -1.42693
RightFoot  -0.551463 -0.904043 9.51189
RightToes  -1.74624e-010 0 -3.6325e-017
Spine  5.92014 2.79505 6.37195
Spine1  3.48539 4.82028 -8.33167
HEad  -8.52998 9.44627 -8.39899
LeftShoulder1  3.01582 -4.00901 -34.1222
LeftArm  4.26816 8.25535 -32.0818
LeftForeArm  3.45494 -2.89879 -17.1509
LeftHand  -0.847159 -2.76629 12.2647
RightShoulder  6.46877 4.50965 68.4993
RightArm  16.3833 4.29455 -3.41835
RightForeArm  15.0571 2.4584 15.4861
RightHand  0.172788 16.3251 0.445053
LeftUpLeg  14.7938 6.32599 1.79795
LeftLeg  -3.72236 7.97787 0.117343
LeftFoot  -5.38739 -0.212983 4.71773
LeftToes  -6.43926e-010 8.38805e-011 -3.16407e-011
558
root  44.2587 38.3688 -139.824 -9.78743 -72.9797 1.74916
RightUpLeg  15.6528 -3.05017 -3.46097
RightLeg  -8.12569 -14.7363 -1.29831
RightFoot  -0.428972 -0.925592 9.63784
RightToes  -1.74624e-010 0 -3.6325e-017
Spine  5.9982 3.15475 5.74056
Spine1  3.48762 4.91198 -7.13055
HEad  -8.84691 10.5389 -8.77511
LeftShoulder1  3.12485 -4.14482 -34.8259
LeftArm  4.09935 7.63418 -32.0261
LeftForeArm  3.61538 -2.40764 -17.2851
LeftHand  -0.819598 -2.68126 11.9945
RightShoulder  6.15269 4.21349 67.8034
RightArm  16.4876 4.24505 -3.24958
RightForeArm  14.0774 2.70798 15.4491
RightHand  0.134301 15.4347 0.278144
LeftUpLeg  14.647 6.31474 1.6529
LeftLeg  -3.71652 7.85948 0.0574143
LeftFoot  -5.50783 -0.228411 5.13164
LeftToes  -6.43926e-010 8.38805e-011 -3.16407e-011
